<svg width="120" height="40" viewBox="0 0 120 40" fill="none" xmlns="http://www.w3.org/2000/svg">
<rect width="120" height="40"/>
<path d="M80 20C80 31.0457 71.0457 40 60 40C48.9543 40 40 31.0457 40 20C40 8.95427 48.9543 0 60 0C71.0457 0 80 8.95427 80 20ZM57.6866 30.5898L72.5253 15.7511C73.0292 15.2473 73.0292 14.4302 72.5253 13.9264L70.7006 12.1016C70.1966 11.5976 69.3797 11.5976 68.8758 12.1016L56.7742 24.203L51.1242 18.5532C50.6204 18.0492 49.8034 18.0492 49.2994 18.5532L47.4747 20.3779C46.9708 20.8818 46.9708 21.6988 47.4747 22.2026L55.8618 30.5897C56.3657 31.0937 57.1827 31.0937 57.6866 30.5898Z" fill="#515070"/>
<path d="M20 0C8.95161 0 0 8.95161 0 20C0 31.0484 8.95161 40 20 40C31.0484 40 40 31.0484 40 20C40 8.95161 31.0484 0 20 0ZM31.6129 22.2581C31.6129 22.7903 31.1774 23.2258 30.6452 23.2258H23.2258V30.6452C23.2258 31.1774 22.7903 31.6129 22.2581 31.6129H17.7419C17.2097 31.6129 16.7742 31.1774 16.7742 30.6452V23.2258H9.35484C8.82258 23.2258 8.3871 22.7903 8.3871 22.2581V17.7419C8.3871 17.2097 8.82258 16.7742 9.35484 16.7742H16.7742V9.35484C16.7742 8.82258 17.2097 8.3871 17.7419 8.3871H22.2581C22.7903 8.3871 23.2258 8.82258 23.2258 9.35484V16.7742H30.6452C31.1774 16.7742 31.6129 17.2097 31.6129 17.7419V22.2581Z" fill="#515070"/>
<path d="M100 0C88.9516 0 80 8.95161 80 20C80 31.0484 88.9516 40 100 40C111.048 40 120 31.0484 120 20C120 8.95161 111.048 0 100 0ZM89.3548 23.2258C88.8226 23.2258 88.3871 22.7903 88.3871 22.2581V17.7419C88.3871 17.2097 88.8226 16.7742 89.3548 16.7742H110.645C111.177 16.7742 111.613 17.2097 111.613 17.7419V22.2581C111.613 22.7903 111.177 23.2258 110.645 23.2258H89.3548Z" fill="#515070"/>
</svg>
